<svg width="165" height="60" viewBox="0 0 165 60" fill="none" xmlns="http://www.w3.org/2000/svg">
<path d="M27.454 3.11006C29.001 2.2169 30.907 2.2169 32.454 3.11006L51.9915 14.3899C53.5385 15.2831 54.4915 16.9338 54.4915 18.7201V41.2799C54.4915 43.0663 53.5385 44.7169 51.9915 45.6101L32.454 56.8899C30.907 57.7831 29.001 57.7831 27.454 56.8899L7.91663 45.6101C6.36966 44.7169 5.41666 43.0663 5.41666 41.2799V18.7201C5.41666 16.9338 6.36966 15.2831 7.91663 14.3899L27.454 3.11006Z" fill="url(#paint0_linear_133_459)"/>
<mask id="mask0_133_459" style="mask-type:alpha" maskUnits="userSpaceOnUse" x="5" y="2" width="50" height="56">
<path d="M27.454 3.11006C29.001 2.2169 30.907 2.2169 32.454 3.11006L51.9915 14.3899C53.5385 15.2831 54.4915 16.9338 54.4915 18.7201V41.2799C54.4915 43.0663 53.5385 44.7169 51.9915 45.6101L32.454 56.8899C30.907 57.7831 29.001 57.7831 27.454 56.8899L7.91663 45.6101C6.36966 44.7169 5.41666 43.0663 5.41666 41.2799V18.7201C5.41666 16.9338 6.36966 15.2831 7.91663 14.3899L27.454 3.11006Z" fill="url(#paint1_linear_133_459)"/>
</mask>
<g mask="url(#mask0_133_459)">
<path d="M29.1207 28.9328V59.1667C44.1857 56.8763 69.9311 51.1959 52.3928 46.7983C34.8543 42.4006 39.6887 27.1004 44.2981 20L29.1207 28.9328Z" stroke="white" stroke-width="3"/>
<path d="M14.954 53.3334V20.2544L30.1153 11.6667L44.954 20.2544" stroke="white" stroke-width="3"/>
</g>
<path d="M71.968 38V20.336H75.904V38H71.968ZM82.6 38L77.464 30.464H81.784L87.16 38H82.6ZM74.848 32.384V29.288H79.168C79.744 29.288 80.24 29.176 80.656 28.952C81.088 28.712 81.416 28.384 81.64 27.968C81.88 27.536 82 27.04 82 26.48C82 25.92 81.88 25.432 81.64 25.016C81.416 24.584 81.088 24.256 80.656 24.032C80.24 23.792 79.744 23.672 79.168 23.672H74.848V20.336H78.856C80.312 20.336 81.576 20.56 82.648 21.008C83.72 21.44 84.544 22.088 85.12 22.952C85.696 23.816 85.984 24.904 85.984 26.216V26.6C85.984 27.896 85.688 28.976 85.096 29.84C84.52 30.688 83.696 31.328 82.624 31.76C81.568 32.176 80.312 32.384 78.856 32.384H74.848ZM89.9073 38V24.848H93.7473V38H89.9073ZM88.1553 27.68V24.848H93.7473V27.68H88.1553ZM91.3953 23.552C90.6753 23.552 90.1393 23.368 89.7873 23C89.4513 22.616 89.2833 22.136 89.2833 21.56C89.2833 20.968 89.4513 20.488 89.7873 20.12C90.1393 19.736 90.6753 19.544 91.3953 19.544C92.1153 19.544 92.6433 19.736 92.9793 20.12C93.3313 20.488 93.5073 20.968 93.5073 21.56C93.5073 22.136 93.3313 22.616 92.9793 23C92.6433 23.368 92.1153 23.552 91.3953 23.552ZM102.291 38.408C100.419 38.408 98.9549 38.024 97.8989 37.256C96.8429 36.488 96.2829 35.408 96.2189 34.016H99.6269C99.6909 34.432 99.9389 34.808 100.371 35.144C100.819 35.464 101.483 35.624 102.363 35.624C103.035 35.624 103.587 35.512 104.019 35.288C104.467 35.048 104.691 34.712 104.691 34.28C104.691 33.896 104.523 33.592 104.187 33.368C103.851 33.128 103.251 32.96 102.387 32.864L101.355 32.768C99.7709 32.608 98.5789 32.168 97.7789 31.448C96.9949 30.728 96.6029 29.808 96.6029 28.688C96.6029 27.76 96.8349 26.984 97.2989 26.36C97.7629 25.736 98.4029 25.264 99.2189 24.944C100.051 24.624 100.995 24.464 102.051 24.464C103.747 24.464 105.115 24.84 106.155 25.592C107.195 26.328 107.739 27.4 107.787 28.808H104.379C104.315 28.376 104.091 28.016 103.707 27.728C103.323 27.424 102.755 27.272 102.003 27.272C101.411 27.272 100.939 27.384 100.587 27.608C100.235 27.832 100.059 28.136 100.059 28.52C100.059 28.888 100.211 29.168 100.515 29.36C100.819 29.552 101.315 29.688 102.003 29.768L103.035 29.864C104.651 30.04 105.907 30.488 106.803 31.208C107.699 31.928 108.147 32.896 108.147 34.112C108.147 34.992 107.907 35.76 107.427 36.416C106.947 37.056 106.267 37.552 105.387 37.904C104.507 38.24 103.475 38.408 102.291 38.408ZM116.659 38.456C115.539 38.456 114.547 38.264 113.683 37.88C112.835 37.496 112.123 36.984 111.547 36.344C110.987 35.688 110.555 34.96 110.251 34.16C109.963 33.344 109.819 32.512 109.819 31.664V31.184C109.819 30.304 109.963 29.464 110.251 28.664C110.555 27.848 110.987 27.12 111.547 26.48C112.107 25.84 112.803 25.336 113.635 24.968C114.483 24.584 115.443 24.392 116.515 24.392C117.923 24.392 119.107 24.712 120.067 25.352C121.043 25.976 121.787 26.8 122.299 27.824C122.811 28.832 123.067 29.936 123.067 31.136V32.432H111.427V30.248H120.739L119.491 31.256C119.491 30.472 119.379 29.8 119.155 29.24C118.931 28.68 118.595 28.256 118.147 27.968C117.715 27.664 117.171 27.512 116.515 27.512C115.843 27.512 115.275 27.664 114.811 27.968C114.347 28.272 113.995 28.72 113.755 29.312C113.515 29.888 113.395 30.6 113.395 31.448C113.395 32.232 113.507 32.92 113.731 33.512C113.955 34.088 114.307 34.536 114.787 34.856C115.267 35.176 115.891 35.336 116.659 35.336C117.363 35.336 117.939 35.2 118.387 34.928C118.835 34.656 119.139 34.32 119.299 33.92H122.827C122.635 34.8 122.259 35.584 121.699 36.272C121.139 36.96 120.435 37.496 119.587 37.88C118.739 38.264 117.763 38.456 116.659 38.456ZM131.587 38.168C130.259 38.168 129.187 38.008 128.371 37.688C127.555 37.352 126.955 36.8 126.571 36.032C126.203 35.248 126.019 34.192 126.019 32.864V21.296H129.595V33.008C129.595 33.632 129.755 34.112 130.075 34.448C130.411 34.768 130.883 34.928 131.491 34.928H133.435V38.168H131.587ZM124.027 27.656V24.848H133.435V27.656H124.027ZM145.282 38L141.13 31.856H139.282L144.634 24.848H148.666L143.626 31.376L143.674 29.504L149.602 38H145.282ZM136.018 38V20.48H139.858V38H136.018ZM155.598 38.408C154.078 38.408 152.91 37.92 152.094 36.944C151.278 35.952 150.87 34.464 150.87 32.48V24.848H154.71V32.672C154.71 33.376 154.91 33.936 155.31 34.352C155.71 34.768 156.246 34.976 156.918 34.976C157.606 34.976 158.166 34.76 158.598 34.328C159.03 33.896 159.246 33.312 159.246 32.576V24.848H163.086V38H160.038V32.456H160.302C160.302 33.784 160.126 34.896 159.774 35.792C159.438 36.672 158.934 37.328 158.262 37.76C157.59 38.192 156.758 38.408 155.766 38.408H155.598Z" fill="#2D394E"/>
<defs>
<linearGradient id="paint0_linear_133_459" x1="29.9541" y1="1.66669" x2="29.9541" y2="58.3334" gradientUnits="userSpaceOnUse">
<stop stop-color="#FF8666"/>
<stop offset="1" stop-color="#FF62A4"/>
</linearGradient>
<linearGradient id="paint1_linear_133_459" x1="29.9541" y1="1.66669" x2="29.9541" y2="58.3334" gradientUnits="userSpaceOnUse">
<stop stop-color="#FF8666"/>
<stop offset="1" stop-color="#FF62A4"/>
</linearGradient>
</defs>
</svg>
